<svg xmlns="http://www.w3.org/2000/svg" version="1.1" xmlns:xlink="http://www.w3.org/1999/xlink" xmlns:svgjs="http://svgjs.dev/svgjs" width="2000" height="1500" viewBox="0 0 2000 1500"><rect width="2000" height="1500" fill="#ffffff"></rect><g transform="matrix(0.75,0,0,0.75,249.67638483964993,0.05154664723022506)"><svg viewBox="0 0 343 343" data-background-color="#ffffff" preserveAspectRatio="xMidYMid meet" height="1999" width="2000" xmlns="http://www.w3.org/2000/svg" xmlns:xlink="http://www.w3.org/1999/xlink"><g id="tight-bounds" transform="matrix(1,0,0,1,0.0740000000000407,0.07400000000001228)"><svg viewBox="0 0 342.85155851775386 342.85155851775386" height="342.85155851775386" width="342.85155851775386"><g><svg></svg></g><g><svg viewBox="0 0 342.85155851775386 342.85155851775386" height="342.85155851775386" width="342.85155851775386"><g><path d="M0 171.426c0-94.676 76.75-171.426 171.426-171.426 94.676 0 171.426 76.75 171.426 171.426 0 94.676-76.75 171.426-171.426 171.426-94.676 0-171.426-76.75-171.426-171.426zM171.426 339.432c92.787 0 168.006-75.219 168.006-168.006 0-92.787-75.219-168.006-168.006-168.006-92.787 0-168.006 75.219-168.006 168.006 0 92.787 75.219 168.006 168.006 168.006z" data-fill-palette-color="tertiary" fill="#ee3e38" stroke="transparent"></path><ellipse rx="164.56874808852186" ry="164.56874808852186" cx="171.42577925887693" cy="171.42577925887693" fill="#ee3e38" stroke="transparent" stroke-width="0" fill-opacity="1" data-fill-palette-color="tertiary"></ellipse></g><g transform="matrix(1,0,0,1,64.84655864529837,121.78241151472753)"><svg viewBox="0 0 213.1584412271571 99.28673548829879" height="99.28673548829879" width="213.1584412271571"><g><svg viewBox="0 0 213.1584412271571 99.28673548829879" height="99.28673548829879" width="213.1584412271571"><g><svg viewBox="0 0 213.1584412271571 99.28673548829879" height="99.28673548829879" width="213.1584412271571"><g transform="matrix(1,0,0,1,0,61.36318571804812)"><svg viewBox="0 0 213.1584412271571 37.923549770250666" height="37.923549770250666" width="213.1584412271571"><g id="textblocktransform"><svg viewBox="0 0 213.1584412271571 37.923549770250666" height="37.923549770250666" width="213.1584412271571" id="textblock"><g><svg viewBox="0 0 213.1584412271571 37.923549770250666" height="37.923549770250666" width="213.1584412271571"><g transform="matrix(1,0,0,1,0,0)"><svg width="213.1584412271571" viewBox="1.63 -33.13 189.68 33.760000000000005" height="37.923549770250666" data-palette-color="#ffffff"><path d="M15.35 0L11.2 0 11.2-31.28 15.35-31.28 15.35 0ZM24.93-28.48L1.63-28.48 1.63-31.95 24.93-31.95 24.93-28.48ZM45.17 0L41.15 0 41.32-5.93 41.17-6.55 41.17-14.33 41.2-15.75Q41.2-18.73 39.69-20.15 38.17-21.58 34.9-21.58L34.9-21.58Q32.27-21.58 30.09-20.83 27.9-20.08 26.2-19.07L26.2-19.07 26.57-22.53Q27.52-23.1 28.84-23.66 30.15-24.23 31.84-24.6 33.52-24.98 35.55-24.98L35.55-24.98Q38.17-24.98 40.01-24.34 41.85-23.7 42.98-22.5 44.12-21.3 44.65-19.6 45.17-17.9 45.17-15.8L45.17-15.8 45.17 0ZM32.75 0.53L32.75 0.53Q29.12 0.53 27.18-1.24 25.25-3 25.25-6.28L25.25-6.28 25.25-7Q25.25-10.38 27.34-12.04 29.42-13.7 33.97-14.35L33.97-14.35 41.7-15.45 41.92-12.5 34.47-11.43Q31.67-11.03 30.47-10.06 29.27-9.1 29.27-7.23L29.27-7.23 29.27-6.83Q29.27-4.9 30.46-3.88 31.65-2.85 34.02-2.85L34.02-2.85Q36.12-2.85 37.62-3.58 39.12-4.3 40.05-5.53 40.97-6.75 41.3-8.25L41.3-8.25 41.92-5.5 41.15-5.5Q40.8-3.9 39.84-2.53 38.87-1.15 37.15-0.31 35.42 0.53 32.75 0.53ZM60.75 0.55L60.75 0.55Q55.5 0.55 52.93-2.29 50.37-5.13 50.37-10.33L50.37-10.33 50.37-14.13Q50.37-19.35 52.95-22.16 55.52-24.98 60.75-24.98L60.75-24.98Q62.3-24.98 63.57-24.69 64.85-24.4 65.86-23.94 66.87-23.48 67.57-22.98L67.57-22.98 67.92-19.45Q66.75-20.35 65.13-20.98 63.52-21.6 61.35-21.6L61.35-21.6Q57.85-21.6 56.13-19.66 54.42-17.73 54.42-14.03L54.42-14.03 54.42-10.43Q54.42-6.8 56.13-4.85 57.85-2.9 61.35-2.9L61.35-2.9Q63.6-2.9 65.23-3.53 66.87-4.15 68.15-5.05L68.15-5.05 67.77-1.48Q66.67-0.73 64.9-0.09 63.12 0.55 60.75 0.55ZM82.27 0.63L82.27 0.63Q77.02 0.63 74.31-2.21 71.59-5.05 71.59-10.38L71.59-10.38 71.59-14.1Q71.59-19.4 74.32-22.23 77.04-25.05 82.27-25.05L82.27-25.05Q87.52-25.05 90.23-22.23 92.94-19.4 92.94-14.1L92.94-14.1 92.94-10.38Q92.94-5.05 90.23-2.21 87.52 0.63 82.27 0.63ZM82.27-2.68L82.27-2.68Q85.52-2.68 87.21-4.6 88.89-6.53 88.89-10.15L88.89-10.15 88.89-14.33Q88.89-17.93 87.21-19.84 85.52-21.75 82.27-21.75L82.27-21.75Q79.04-21.75 77.34-19.84 75.64-17.93 75.64-14.33L75.64-14.33 75.64-10.15Q75.64-6.53 77.34-4.6 79.04-2.68 82.27-2.68ZM117.09-31.95L117.09 0 112.94 0 112.94-31.95 117.09-31.95ZM136.39-31.95L136.39 0 132.24 0 132.24-31.95 136.39-31.95ZM115.31-14.73L115.31-18.23 133.89-18.23 133.89-14.73 115.31-14.73ZM143.16-24.4L147.19-24.4 147.19-9.22Q147.19-7.3 147.72-5.86 148.26-4.42 149.49-3.64 150.71-2.85 152.79-2.85L152.79-2.85Q154.74-2.85 156.14-3.56 157.54-4.28 158.42-5.53 159.31-6.78 159.64-8.35L159.64-8.35 160.36-5.48 159.49-5.48Q159.11-3.83 158.11-2.46 157.11-1.1 155.42-0.29 153.74 0.53 151.26 0.53L151.26 0.53Q148.39 0.53 146.6-0.56 144.81-1.65 143.99-3.74 143.16-5.83 143.16-8.78L143.16-8.78 143.16-24.4ZM159.46-24.4L163.51-24.4 163.51 0 159.46 0 159.64-5.85 159.46-6.1 159.46-24.4ZM182.13 0.53L182.13 0.53Q179.88 0.53 178.22-0.23 176.56-0.98 175.53-2.38 174.51-3.78 174.16-5.63L174.16-5.63 172.81-5.63 174.03-9.43Q174.16-7.23 175.07-5.76 175.98-4.3 177.51-3.58 179.03-2.85 180.96-2.85L180.96-2.85Q184.01-2.85 185.62-4.65 187.23-6.45 187.23-10L187.23-10 187.23-14.58Q187.23-18.05 185.61-19.85 183.98-21.65 180.88-21.65L180.88-21.65Q179.03-21.65 177.61-20.93 176.18-20.2 175.25-18.95 174.31-17.7 173.96-16.1L173.96-16.1 173.03-18.93 174.18-18.93Q174.56-20.6 175.52-21.96 176.48-23.33 178.16-24.14 179.83-24.95 182.31-24.95L182.31-24.95Q186.71-24.95 189.01-22.21 191.31-19.48 191.31-14.28L191.31-14.28 191.31-10.23Q191.31-4.98 188.97-2.23 186.63 0.53 182.13 0.53ZM174.16 0L170.11 0 170.11-33.13 174.13-33.13 174.13-25.18 174.01-18.18 174.03-17.4 174.03-7.2 173.98-5.9 174.16 0Z" opacity="1" transform="matrix(1,0,0,1,0,0)" fill="#ffffff" class="wordmark-text-0" data-fill-palette-color="quaternary" id="text-0"></path></svg></g></svg></g></svg></g></svg></g><g transform="matrix(1,0,0,1,63.225834145035705,0)"><svg viewBox="0 0 86.7067729370857 52.410345782486424" height="52.410345782486424" width="86.7067729370857"><g><svg xmlns="http://www.w3.org/2000/svg" xml:space="preserve" viewBox="6.513278115587325 19.434314575050763 87.79095554888372 53.06568542494922" x="0" y="0" height="52.410345782486424" width="86.7067729370857" class="icon-icon-0" data-fill-palette-color="quaternary" id="icon-0"><path d="M6.9 59.9c0 0.1 0 0.2-0.1 0.3 0.1-0.1 0.1-0.2 0.1-0.3M6.9 59.6v0.3z" fill="#ffffff" data-fill-palette-color="quaternary"></path><path d="M94.1 62.6c-0.4-4.2-1.2-7.8-2.3-10.6 0 0 0-0.1-0.1-0.1-0.5-1.4-2.9-8-9.8-14.1l0.8-2.9c0.1-0.5-0.1-1-0.6-1.3l-1.5-0.8 0.6-1.5c0.1-0.3 0.1-0.7-0.1-1s-0.5-0.5-0.9-0.5h-2.9l1-4.1c0.1-0.4 0-0.8-0.3-1-0.3-0.3-0.6-0.4-1-0.3l-10 2.3v0.2c-0.3-0.1-0.5-0.3-0.8-0.4-3.9-1.9-7.7-0.9-11.3 0.1v-2c0-0.3-0.1-0.6-0.3-0.8s-0.5-0.3-0.8-0.3l-2.4 0.1-0.8-3.3c-0.1-0.3-0.3-0.6-0.6-0.8-0.3-0.1-0.7-0.1-1 0.1l-5.7 3.6-1.9-2.1c-0.2-0.3-0.6-0.4-0.9-0.3-0.3 0-0.6 0.2-0.8 0.5L35.8 28C21 30.9 10.1 42.7 6.9 59.6v0.3c0 0.1 0 0.2-0.1 0.3-0.7 4.4-0.1 7.5 1.6 9.7 1.5 1.7 3.7 2.6 6.5 2.6h70.6q4.95-0.3 7.2-3c1.5-1.7 1.9-4 1.4-6.9M75.8 26.8l-0.9 3.8c-0.1 0.3 0 0.7 0.2 0.9 0.2 0.3 0.5 0.4 0.9 0.4h2.7l-0.4 1c-0.2 0.5 0 1.1 0.5 1.4l1.6 0.8-0.3 1.1c-2.5-1.9-5.4-3.7-8.9-5.2-0.5-0.8-1.2-1.7-2.1-2.5zM65 29c2.3 1.1 3.4 2.6 4.2 4 0.2 0.3 0.3 0.6 0.5 0.9 0.2 0.4 0.4 0.8 0.6 1.1 0.7 1.2 1.6 2.3 3.2 3 0.4 0.2 0.9 0.4 1.4 0.6 4.1 1.7 6.7 3.1 6 7.2-0.9 1.4-0.4 3.2 0.4 6.2-0.9-0.4-1.7-0.7-2.4-0.8-4.5-11-12.4-18.7-22.7-22.1 3.2-0.8 6-1.5 8.8-0.1m-24.2-5.3l1.5 1.6c0.4 0.4 0.9 0.4 1.4 0.2l5.2-3.3 0.6 2.7c0.1 0.5 0.6 0.9 1.1 0.8l2.2-0.1V27c-0.9 0.2-1.8 0.4-2.6 0.5-2.2-0.3-4.4-0.5-6.7-0.5q-2.55 0-4.8 0.3z m48.8 43.2c-0.8 1-2.6 1.5-5.3 1.5h-9.7c-1.5-1-2.4-2.7-2.4-4.6h-2c0 1.7 0.6 3.3 1.5 4.6h-4.3c-1.5-1-2.4-2.7-2.4-4.6h-2c0 1.7 0.6 3.3 1.6 4.6h-3.8c-1.5-1-2.4-2.7-2.4-4.6h-2c0 1.7 0.6 3.3 1.5 4.6H54c-1.5-1-2.4-2.7-2.4-4.6h-2.1c0 1.7 0.6 3.3 1.6 4.6h-3.8c-1.4-1-2.4-2.7-2.4-4.6h-2c0 1.7 0.6 3.3 1.5 4.6h-3.8c-1.5-1-2.4-2.7-2.4-4.6h-2.1c0 1.7 0.6 3.3 1.6 4.6H34c-1.5-1-2.4-2.7-2.4-4.6h-2.1c0 1.7 0.6 3.3 1.6 4.6h-3.8c-1.4-1-2.4-2.7-2.4-4.6h-2c0 1.7 0.6 3.3 1.5 4.6h-3.8c-1.5-1-2.4-2.7-2.4-4.6h-2c0 1.7 0.6 3.3 1.5 4.6H15c-1.6 0-2.7-0.4-3.4-1.2-0.9-1.1-1.2-3.3-0.8-6.3v-0.5c3.3-17.6 16-29 32.4-29C61 31.3 73.5 42 77.5 60.7c0.2 0.9 1 1.6 2 1.6h5.7c0.6 0 1.2-0.3 1.6-0.7 0.4-0.5 0.6-1.1 0.5-1.7-0.6-3.7-1.4-6.6-1.9-8.7-0.3-1-0.5-2.1-0.7-2.8 0.9 0.4 2.2 1.8 3.3 4.7 0.9 2.3 1.7 5.6 2.1 10 0.1 0.6 0.2 1.2 0.2 1.7-0.1 0.9-0.3 1.6-0.7 2.1" fill="#ffffff" data-fill-palette-color="quaternary"></path></svg></g></svg></g><g></g></svg></g></svg></g></svg></g></svg></g><defs></defs></svg><rect width="342.85155851775386" height="342.85155851775386" fill="none" stroke="none" visibility="hidden"></rect></g></svg></g></svg>

