<?xml version="1.0" encoding="UTF-8" standalone="no" ?>
<!DOCTYPE svg PUBLIC "-//W3C//DTD SVG 1.1//EN" "http://www.w3.org/Graphics/SVG/1.1/DTD/svg11.dtd">
<svg xmlns="http://www.w3.org/2000/svg" xmlns:xlink="http://www.w3.org/1999/xlink" version="1.1" width="1080" height="1080" viewBox="0 0 1080 1080" xml:space="preserve">
<desc>Created with Fabric.js 5.2.4</desc>
<defs>
</defs>
<g transform="matrix(1 0 0 1 540 540)" id="34d0e169-57b2-4b95-8a0e-042eddd706a2"  >
<rect style="stroke: none; stroke-width: 1; stroke-dasharray: none; stroke-linecap: butt; stroke-dashoffset: 0; stroke-linejoin: miter; stroke-miterlimit: 4; fill: rgb(255,255,255); fill-rule: nonzero; opacity: 1; visibility: hidden;" vector-effect="non-scaling-stroke"  x="-540" y="-540" rx="0" ry="0" width="1080" height="1080" />
</g>
<g transform="matrix(1 0 0 1 540 540)" id="51bcf144-9d87-4388-ae7c-2618407d2d6f"  >
</g>
<g transform="matrix(4.57 0 0 4.57 508.33 405.38)"  >
<path style="stroke: rgb(255,255,255); stroke-opacity: 0; stroke-width: 1; stroke-dasharray: none; stroke-linecap: butt; stroke-dashoffset: 0; stroke-linejoin: miter; stroke-miterlimit: 4; fill: rgb(238,62,56); fill-rule: nonzero; opacity: 1;" vector-effect="non-scaling-stroke"  transform=" translate(-171.43, -171.43)" d="M 0 171.426 C 0 76.74999999999999 76.75 0 171.426 0 C 266.102 0 342.852 76.75 342.852 171.426 C 342.852 266.102 266.102 342.852 171.426 342.852 C 76.74999999999999 342.852 0 266.102 0 171.426 z M 171.426 339.432 C 264.21299999999997 339.432 339.432 264.213 339.432 171.42600000000002 C 339.432 78.63900000000001 264.213 3.420000000000016 171.42600000000002 3.420000000000016 C 78.63900000000001 3.420000000000016 3.420000000000016 78.63900000000001 3.420000000000016 171.42600000000002 C 3.420000000000016 264.213 78.63900000000001 339.432 171.42600000000002 339.432 z" stroke-linecap="round" />
</g>
<g transform="matrix(4.57 0 0 4.57 508.33 405.38)"  >
<ellipse style="stroke: rgb(255,255,255); stroke-opacity: 0; stroke-width: 0; stroke-dasharray: none; stroke-linecap: butt; stroke-dashoffset: 0; stroke-linejoin: miter; stroke-miterlimit: 4; fill: rgb(238,62,56); fill-rule: nonzero; opacity: 1;" vector-effect="non-scaling-stroke"  cx="0" cy="0" rx="164.56874808852186" ry="164.56874808852186" />
</g>
<g transform="matrix(5.13 0 0 5.13 511.1 651.59)" id="text-0"  >
<path style="stroke: none; stroke-width: 1; stroke-dasharray: none; stroke-linecap: butt; stroke-dashoffset: 0; stroke-linejoin: miter; stroke-miterlimit: 4; fill: rgb(255,255,255); fill-rule: nonzero; opacity: 1;" vector-effect="non-scaling-stroke"  transform=" translate(-96.47, 16.25)" d="M 15.35 0 L 11.2 0 L 11.2 -31.28 L 15.35 -31.28 L 15.35 0 Z M 24.93 -28.48 L 1.63 -28.48 L 1.63 -31.95 L 24.93 -31.95 L 24.93 -28.48 Z M 45.17 0 L 41.15 0 L 41.32 -5.93 L 41.17 -6.55 L 41.17 -14.33 L 41.2 -15.75 Q 41.2 -18.73 39.69 -20.15 Q 38.17 -21.58 34.9 -21.58 L 34.9 -21.58 Q 32.27 -21.58 30.09 -20.83 Q 27.9 -20.08 26.2 -19.07 L 26.2 -19.07 L 26.57 -22.53 Q 27.52 -23.1 28.84 -23.66 Q 30.15 -24.23 31.84 -24.6 Q 33.52 -24.98 35.55 -24.98 L 35.55 -24.98 Q 38.17 -24.98 40.01 -24.34 Q 41.85 -23.7 42.98 -22.5 Q 44.12 -21.3 44.65 -19.6 Q 45.17 -17.9 45.17 -15.8 L 45.17 -15.8 L 45.17 0 Z M 32.75 0.53 L 32.75 0.53 Q 29.12 0.53 27.18 -1.24 Q 25.25 -3 25.25 -6.28 L 25.25 -6.28 L 25.25 -7 Q 25.25 -10.38 27.34 -12.04 Q 29.42 -13.7 33.97 -14.35 L 33.97 -14.35 L 41.7 -15.45 L 41.92 -12.5 L 34.47 -11.43 Q 31.67 -11.03 30.47 -10.06 Q 29.27 -9.1 29.27 -7.23 L 29.27 -7.23 L 29.27 -6.83 Q 29.27 -4.9 30.46 -3.88 Q 31.65 -2.85 34.02 -2.85 L 34.02 -2.85 Q 36.12 -2.85 37.62 -3.58 Q 39.12 -4.3 40.05 -5.53 Q 40.97 -6.75 41.3 -8.25 L 41.3 -8.25 L 41.92 -5.5 L 41.15 -5.5 Q 40.8 -3.9 39.84 -2.53 Q 38.87 -1.15 37.15 -0.31 Q 35.42 0.53 32.75 0.53 Z M 60.75 0.55 L 60.75 0.55 Q 55.5 0.55 52.93 -2.29 Q 50.37 -5.13 50.37 -10.33 L 50.37 -10.33 L 50.37 -14.13 Q 50.37 -19.35 52.95 -22.16 Q 55.52 -24.98 60.75 -24.98 L 60.75 -24.98 Q 62.3 -24.98 63.57 -24.69 Q 64.85 -24.4 65.86 -23.94 Q 66.87 -23.48 67.57 -22.98 L 67.57 -22.98 L 67.92 -19.45 Q 66.75 -20.35 65.13 -20.98 Q 63.52 -21.6 61.35 -21.6 L 61.35 -21.6 Q 57.85 -21.6 56.13 -19.66 Q 54.42 -17.73 54.42 -14.03 L 54.42 -14.03 L 54.42 -10.43 Q 54.42 -6.8 56.13 -4.85 Q 57.85 -2.9 61.35 -2.9 L 61.35 -2.9 Q 63.6 -2.9 65.23 -3.53 Q 66.87 -4.15 68.15 -5.05 L 68.15 -5.05 L 67.77 -1.48 Q 66.67 -0.73 64.9 -0.09 Q 63.12 0.55 60.75 0.55 Z M 82.27 0.63 L 82.27 0.63 Q 77.02 0.63 74.31 -2.21 Q 71.59 -5.05 71.59 -10.38 L 71.59 -10.38 L 71.59 -14.1 Q 71.59 -19.4 74.32 -22.23 Q 77.04 -25.05 82.27 -25.05 L 82.27 -25.05 Q 87.52 -25.05 90.23 -22.23 Q 92.94 -19.4 92.94 -14.1 L 92.94 -14.1 L 92.94 -10.38 Q 92.94 -5.05 90.23 -2.21 Q 87.52 0.63 82.27 0.63 Z M 82.27 -2.68 L 82.27 -2.68 Q 85.52 -2.68 87.21 -4.6 Q 88.89 -6.53 88.89 -10.15 L 88.89 -10.15 L 88.89 -14.33 Q 88.89 -17.93 87.21 -19.84 Q 85.52 -21.75 82.27 -21.75 L 82.27 -21.75 Q 79.04 -21.75 77.34 -19.84 Q 75.64 -17.93 75.64 -14.33 L 75.64 -14.33 L 75.64 -10.15 Q 75.64 -6.53 77.34 -4.6 Q 79.04 -2.68 82.27 -2.68 Z M 117.09 -31.95 L 117.09 0 L 112.94 0 L 112.94 -31.95 L 117.09 -31.95 Z M 136.39 -31.95 L 136.39 0 L 132.24 0 L 132.24 -31.95 L 136.39 -31.95 Z M 115.31 -14.73 L 115.31 -18.23 L 133.89 -18.23 L 133.89 -14.73 L 115.31 -14.73 Z M 143.16 -24.4 L 147.19 -24.4 L 147.19 -9.22 Q 147.19 -7.3 147.72 -5.86 Q 148.26 -4.42 149.49 -3.64 Q 150.71 -2.85 152.79 -2.85 L 152.79 -2.85 Q 154.74 -2.85 156.14 -3.56 Q 157.54 -4.28 158.42 -5.53 Q 159.31 -6.78 159.64 -8.35 L 159.64 -8.35 L 160.36 -5.48 L 159.49 -5.48 Q 159.11 -3.83 158.11 -2.46 Q 157.11 -1.1 155.42 -0.29 Q 153.74 0.53 151.26 0.53 L 151.26 0.53 Q 148.39 0.53 146.6 -0.56 Q 144.81 -1.65 143.99 -3.74 Q 143.16 -5.83 143.16 -8.78 L 143.16 -8.78 L 143.16 -24.4 Z M 159.46 -24.4 L 163.51 -24.4 L 163.51 0 L 159.46 0 L 159.64 -5.85 L 159.46 -6.1 L 159.46 -24.4 Z M 182.13 0.53 L 182.13 0.53 Q 179.88 0.53 178.22 -0.23 Q 176.56 -0.98 175.53 -2.38 Q 174.51 -3.78 174.16 -5.63 L 174.16 -5.63 L 172.81 -5.63 L 174.03 -9.43 Q 174.16 -7.23 175.07 -5.76 Q 175.98 -4.3 177.51 -3.58 Q 179.03 -2.85 180.96 -2.85 L 180.96 -2.85 Q 184.01 -2.85 185.62 -4.65 Q 187.23 -6.45 187.23 -10 L 187.23 -10 L 187.23 -14.58 Q 187.23 -18.05 185.61 -19.85 Q 183.98 -21.65 180.88 -21.65 L 180.88 -21.65 Q 179.03 -21.65 177.61 -20.93 Q 176.18 -20.2 175.25 -18.95 Q 174.31 -17.7 173.96 -16.1 L 173.96 -16.1 L 173.03 -18.93 L 174.18 -18.93 Q 174.56 -20.6 175.52 -21.96 Q 176.48 -23.33 178.16 -24.14 Q 179.83 -24.95 182.31 -24.95 L 182.31 -24.95 Q 186.71 -24.95 189.01 -22.21 Q 191.31 -19.48 191.31 -14.28 L 191.31 -14.28 L 191.31 -10.23 Q 191.31 -4.98 188.97 -2.23 Q 186.63 0.53 182.13 0.53 Z M 174.16 0 L 170.11 0 L 170.11 -33.13 L 174.13 -33.13 L 174.13 -25.18 L 174.01 -18.18 L 174.03 -17.4 L 174.03 -7.2 L 173.98 -5.9 L 174.16 0 Z" stroke-linecap="round" />
</g>
<g transform="matrix(4.51 0 0 4.51 311.69 361.15)"  >
<path style="stroke: none; stroke-width: 1; stroke-dasharray: none; stroke-linecap: butt; stroke-dashoffset: 0; stroke-linejoin: miter; stroke-miterlimit: 4; fill: rgb(255,255,255); fill-rule: nonzero; opacity: 1;" vector-effect="non-scaling-stroke"  transform=" translate(-6.85, -59.9)" d="M 6.9 59.9 C 6.9 60 6.9 60.1 6.800000000000001 60.199999999999996 C 6.9 60.099999999999994 6.9 59.99999999999999 6.9 59.9 M 6.9 59.6 L 6.9 59.9 z" stroke-linecap="round" />
</g>
<g transform="matrix(4.51 0 0 4.51 508.33 298.25)"  >
<path style="stroke: none; stroke-width: 1; stroke-dasharray: none; stroke-linecap: butt; stroke-dashoffset: 0; stroke-linejoin: miter; stroke-miterlimit: 4; fill: rgb(255,255,255); fill-rule: nonzero; opacity: 1;" vector-effect="non-scaling-stroke"  transform=" translate(-50.41, -45.97)" d="M 94.1 62.6 C 93.69999999999999 58.4 92.89999999999999 54.800000000000004 91.8 52 C 91.8 52 91.8 51.9 91.7 51.9 C 91.2 50.5 88.8 43.9 81.9 37.8 L 82.7 34.9 C 82.8 34.4 82.60000000000001 33.9 82.10000000000001 33.6 L 80.60000000000001 32.800000000000004 L 81.2 31.300000000000004 C 81.3 31.000000000000004 81.3 30.600000000000005 81.10000000000001 30.300000000000004 C 80.90000000000002 30.000000000000004 80.60000000000001 29.800000000000004 80.2 29.800000000000004 L 77.3 29.800000000000004 L 78.3 25.700000000000003 C 78.39999999999999 25.300000000000004 78.3 24.900000000000002 78 24.700000000000003 C 77.7 24.400000000000002 77.4 24.300000000000004 77 24.400000000000002 L 67 26.700000000000003 L 67 26.900000000000002 C 66.7 26.8 66.5 26.6 66.2 26.500000000000004 C 62.300000000000004 24.600000000000005 58.5 25.600000000000005 54.900000000000006 26.600000000000005 L 54.900000000000006 24.600000000000005 C 54.900000000000006 24.300000000000004 54.800000000000004 24.000000000000004 54.60000000000001 23.800000000000004 C 54.40000000000001 23.600000000000005 54.10000000000001 23.500000000000004 53.80000000000001 23.500000000000004 L 51.40000000000001 23.600000000000005 L 50.600000000000016 20.300000000000004 C 50.500000000000014 20.000000000000004 50.30000000000002 19.700000000000003 50.000000000000014 19.500000000000004 C 49.70000000000002 19.400000000000002 49.30000000000001 19.400000000000002 49.000000000000014 19.600000000000005 L 43.30000000000001 23.200000000000006 L 41.40000000000001 21.100000000000005 C 41.20000000000001 20.800000000000004 40.80000000000001 20.700000000000006 40.500000000000014 20.800000000000004 C 40.20000000000002 20.800000000000004 39.90000000000001 21.000000000000004 39.70000000000002 21.300000000000004 L 35.8 28 C 21 30.9 10.1 42.7 6.9 59.6 L 6.9 59.9 C 6.9 60 6.9 60.1 6.800000000000001 60.199999999999996 C 6.1000000000000005 64.6 6.700000000000001 67.69999999999999 8.4 69.89999999999999 C 9.9 71.6 12.100000000000001 72.49999999999999 14.9 72.49999999999999 L 85.5 72.49999999999999 Q 90.45 72.19999999999999 92.7 69.49999999999999 C 94.2 67.79999999999998 94.60000000000001 65.49999999999999 94.10000000000001 62.59999999999999 M 75.8 26.8 L 74.89999999999999 30.6 C 74.8 30.900000000000002 74.89999999999999 31.3 75.1 31.5 C 75.3 31.8 75.6 31.9 76 31.9 L 78.7 31.9 L 78.3 32.9 C 78.1 33.4 78.3 34 78.8 34.3 L 80.39999999999999 35.099999999999994 L 80.1 36.199999999999996 C 77.6 34.3 74.69999999999999 32.49999999999999 71.19999999999999 30.999999999999996 C 70.69999999999999 30.199999999999996 69.99999999999999 29.299999999999997 69.1 28.499999999999996 z M 65 29 C 67.3 30.1 68.4 31.6 69.2 33 C 69.4 33.3 69.5 33.6 69.7 33.9 C 69.9 34.3 70.10000000000001 34.699999999999996 70.3 35 C 71 36.2 71.89999999999999 37.3 73.5 38 C 73.9 38.2 74.4 38.4 74.9 38.6 C 79 40.300000000000004 81.60000000000001 41.7 80.9 45.800000000000004 C 80 47.2 80.5 49.00000000000001 81.30000000000001 52.00000000000001 C 80.4 51.60000000000001 79.60000000000001 51.300000000000004 78.9 51.20000000000001 C 74.4 40.20000000000001 66.5 32.500000000000014 56.2 29.10000000000001 C 59.400000000000006 28.300000000000008 62.2 27.60000000000001 65 29.000000000000007 M 40.8 23.700000000000006 L 42.3 25.300000000000008 C 42.699999999999996 25.700000000000006 43.199999999999996 25.700000000000006 43.699999999999996 25.500000000000007 L 48.9 22.200000000000006 L 49.5 24.900000000000006 C 49.6 25.400000000000006 50.1 25.800000000000004 50.6 25.700000000000006 L 52.800000000000004 25.600000000000005 L 52.800000000000004 27 C 51.900000000000006 27.2 51.00000000000001 27.4 50.2 27.5 C 48 27.2 45.800000000000004 27 43.5 27 Q 40.95 27 38.7 27.3 z M 89.6 66.9 C 88.8 67.9 87 68.4 84.3 68.4 L 74.6 68.4 C 73.1 67.4 72.19999999999999 65.7 72.19999999999999 63.800000000000004 L 70.19999999999999 63.800000000000004 C 70.19999999999999 65.5 70.79999999999998 67.10000000000001 71.69999999999999 68.4 L 67.39999999999999 68.4 C 65.89999999999999 67.4 64.99999999999999 65.7 64.99999999999999 63.800000000000004 L 62.999999999999986 63.800000000000004 C 62.999999999999986 65.5 63.59999999999999 67.10000000000001 64.59999999999998 68.4 L 60.79999999999998 68.4 C 59.29999999999998 67.4 58.399999999999984 65.7 58.399999999999984 63.800000000000004 L 56.399999999999984 63.800000000000004 C 56.399999999999984 65.5 56.999999999999986 67.10000000000001 57.899999999999984 68.4 L 54 68.4 C 52.5 67.4 51.6 65.7 51.6 63.800000000000004 L 49.5 63.800000000000004 C 49.5 65.5 50.1 67.10000000000001 51.1 68.4 L 47.300000000000004 68.4 C 45.900000000000006 67.4 44.900000000000006 65.7 44.900000000000006 63.800000000000004 L 42.900000000000006 63.800000000000004 C 42.900000000000006 65.5 43.50000000000001 67.10000000000001 44.400000000000006 68.4 L 40.60000000000001 68.4 C 39.10000000000001 67.4 38.20000000000001 65.7 38.20000000000001 63.800000000000004 L 36.10000000000001 63.800000000000004 C 36.10000000000001 65.5 36.70000000000001 67.10000000000001 37.70000000000001 68.4 L 34 68.4 C 32.5 67.4 31.6 65.7 31.6 63.800000000000004 L 29.5 63.800000000000004 C 29.5 65.5 30.1 67.10000000000001 31.1 68.4 L 27.3 68.4 C 25.900000000000002 67.4 24.900000000000002 65.7 24.900000000000002 63.800000000000004 L 22.900000000000002 63.800000000000004 C 22.900000000000002 65.5 23.500000000000004 67.10000000000001 24.400000000000002 68.4 L 20.6 68.4 C 19.1 67.4 18.200000000000003 65.7 18.200000000000003 63.800000000000004 L 16.200000000000003 63.800000000000004 C 16.200000000000003 65.5 16.800000000000004 67.10000000000001 17.700000000000003 68.4 L 15 68.4 C 13.4 68.4 12.3 68 11.6 67.2 C 10.7 66.10000000000001 10.4 63.900000000000006 10.799999999999999 60.900000000000006 L 10.799999999999999 60.400000000000006 C 14.099999999999998 42.800000000000004 26.799999999999997 31.400000000000006 43.199999999999996 31.400000000000006 C 61 31.3 73.5 42 77.5 60.7 C 77.7 61.6 78.5 62.300000000000004 79.5 62.300000000000004 L 85.2 62.300000000000004 C 85.8 62.300000000000004 86.4 62.00000000000001 86.8 61.6 C 87.2 61.1 87.39999999999999 60.5 87.3 59.9 C 86.7 56.199999999999996 85.89999999999999 53.3 85.39999999999999 51.2 C 85.1 50.2 84.89999999999999 49.1 84.69999999999999 48.400000000000006 C 85.6 48.800000000000004 86.89999999999999 50.2 87.99999999999999 53.10000000000001 C 88.89999999999999 55.400000000000006 89.69999999999999 58.70000000000001 90.09999999999998 63.10000000000001 C 90.19999999999997 63.70000000000001 90.29999999999998 64.30000000000001 90.29999999999998 64.80000000000001 C 90.19999999999999 65.70000000000002 89.99999999999999 66.4 89.59999999999998 66.9" stroke-linecap="round" />
</g>
<g transform="matrix(4.57 0 0 4.57 238.59 1441)"  >
<rect style="stroke: none; stroke-width: 1; stroke-dasharray: none; stroke-linecap: butt; stroke-dashoffset: 0; stroke-linejoin: miter; stroke-miterlimit: 4; fill: none; fill-rule: nonzero; opacity: 1;" vector-effect="non-scaling-stroke"  x="-171.42577925887693" y="-171.42577925887693" rx="0" ry="0" width="342.85155851775386" height="342.85155851775386" />
</g>
</svg>